<?xml version="1.0" standalone="no"?>
<!DOCTYPE svg PUBLIC "-//W3C//DTD SVG 20010904//EN"
 "http://www.w3.org/TR/2001/REC-SVG-20010904/DTD/svg10.dtd">
<svg version="1.0" xmlns="http://www.w3.org/2000/svg"
 width="1067.000000pt" height="1280.000000pt" viewBox="0 0 1067.000000 1280.000000"
 preserveAspectRatio="xMidYMid meet">
<g transform="translate(0.000000,1280.000000) scale(0.100000,-0.100000)"
fill="#000000" stroke="none">
<path d="M5301 12758 c-30 -70 -89 -136 -262 -291 -165 -147 -215 -199 -282
-293 -147 -205 -172 -496 -58 -676 86 -136 246 -232 406 -245 38 -3 76 -10 83
-16 9 -7 12 -53 12 -167 0 -249 -12 -610 -21 -610 -11 0 -456 438 -526 518
l-55 62 21 105 c46 227 12 353 -134 501 -136 138 -267 178 -725 224 -113 11
-222 23 -242 26 l-37 7 5 -199 c8 -307 22 -532 39 -623 55 -288 183 -407 450
-418 80 -4 129 -1 179 11 93 22 198 79 246 133 21 25 45 43 53 41 20 -5 147
-143 147 -161 0 -8 -31 -46 -68 -83 -53 -54 -101 -88 -222 -158 -179 -102
-261 -164 -317 -238 -130 -169 -164 -367 -91 -513 28 -53 118 -146 198 -203
36 -25 67 -49 70 -53 7 -10 -13 -195 -21 -204 -4 -3 -105 128 -225 292 -120
164 -253 344 -297 401 -43 56 -83 117 -88 135 -24 86 -5 345 37 505 10 34 15
65 12 68 -3 3 -54 18 -113 34 l-107 29 -18 -42 c-28 -64 -50 -187 -50 -279 0
-92 -7 -128 -24 -128 -15 0 -133 126 -230 247 -151 188 -230 384 -217 539 1 6
39 30 85 52 220 110 336 332 297 569 -36 210 -180 344 -543 508 -214 97 -321
150 -373 185 -22 14 -45 30 -51 33 -8 5 -15 -22 -23 -81 -25 -198 -69 -312
-201 -516 -102 -159 -122 -212 -122 -326 0 -236 136 -403 377 -465 33 -8 114
-18 180 -23 l119 -7 17 -85 c10 -47 29 -117 43 -156 14 -39 26 -76 26 -82 0
-14 -33 -20 -151 -28 l-96 -6 -49 88 c-56 101 -155 209 -224 244 -144 74 -341
65 -470 -21 -114 -77 -183 -167 -417 -548 -95 -153 -167 -233 -231 -257 -26
-10 -51 -20 -55 -24 -4 -4 42 -23 103 -43 61 -20 213 -85 338 -145 316 -152
413 -182 590 -182 199 0 356 78 438 216 42 70 66 185 62 299 l-3 100 123 8
c205 13 217 7 491 -259 328 -318 588 -619 525 -607 -5 0 -67 11 -139 23 -71
12 -131 22 -132 24 -2 1 -12 37 -22 79 -34 132 -91 220 -185 283 -101 68 -291
109 -398 84 -135 -31 -244 -122 -468 -391 -171 -203 -212 -241 -292 -271 -69
-25 -79 -35 -41 -43 156 -34 237 -79 390 -215 153 -136 208 -177 297 -222 238
-120 468 -110 614 26 86 81 138 201 149 344 4 53 11 86 19 89 7 2 60 -7 119
-21 310 -75 485 -237 646 -597 55 -121 240 -595 354 -904 140 -379 395 -1179
395 -1239 0 -33 -20 -4 -81 115 -33 66 -95 170 -136 232 -146 217 -246 411
-293 564 l-21 71 -132 61 -132 61 -7 -48 c-13 -95 -8 -147 21 -235 18 -54 26
-89 20 -93 -6 -3 -52 36 -102 87 -67 68 -101 113 -125 161 -35 73 -85 226 -78
243 2 6 35 17 72 24 187 36 293 143 325 326 31 179 -19 331 -154 467 -40 40
-143 126 -229 191 -162 122 -238 195 -274 262 l-22 40 -31 -68 c-37 -83 -60
-113 -221 -290 -191 -210 -250 -311 -273 -465 -13 -85 1 -207 32 -276 53 -120
174 -198 351 -225 41 -6 89 -14 106 -17 29 -4 35 -11 64 -85 18 -44 30 -82 27
-85 -3 -4 -48 10 -99 30 -142 55 -237 81 -485 132 -125 26 -262 58 -303 71
-93 30 -222 98 -297 156 -75 58 -173 154 -173 170 0 7 20 24 44 40 67 42 144
130 178 203 107 228 -26 497 -295 599 -90 33 -199 52 -378 65 -232 16 -340 29
-413 50 l-66 19 0 -137 c0 -75 -7 -213 -15 -307 -34 -390 -10 -542 99 -643 92
-85 196 -117 352 -110 106 5 181 27 249 73 20 14 40 25 45 25 10 0 180 -171
180 -181 0 -3 -69 -9 -154 -12 -313 -13 -534 -63 -765 -174 -62 -30 -114 -53
-116 -51 -1 2 -19 39 -40 82 -64 135 -166 218 -304 247 -30 6 -102 9 -160 7
-90 -3 -115 -8 -163 -31 -157 -76 -303 -282 -436 -617 -27 -69 -53 -136 -57
-150 -4 -14 -23 -65 -42 -113 -19 -49 -33 -91 -30 -93 3 -3 33 -12 67 -20 34
-8 147 -48 251 -89 255 -101 340 -125 469 -132 301 -15 522 134 571 385 14 75
7 188 -16 256 -16 47 -16 50 1 63 57 42 312 117 514 152 215 37 630 74 630 56
0 -5 -33 -40 -73 -79 -40 -39 -86 -89 -103 -110 l-30 -39 -64 17 c-98 26 -269
32 -354 12 -163 -38 -297 -147 -336 -272 -41 -134 -36 -300 16 -559 25 -122
104 -411 129 -471 l14 -33 91 25 c349 96 596 226 761 401 104 111 149 229 149
393 0 144 -40 266 -115 349 -19 21 -35 45 -35 54 0 26 147 154 215 188 121 59
234 50 510 -43 264 -89 575 -217 575 -237 0 -6 -24 -23 -52 -37 -29 -15 -72
-42 -96 -61 l-43 -35 -59 41 c-32 23 -90 56 -127 74 -64 30 -74 32 -183 32
-108 0 -119 -2 -180 -31 -125 -59 -213 -165 -256 -309 -27 -88 -25 -319 4
-480 60 -332 71 -403 72 -437 0 -45 0 -45 112 -19 46 10 119 24 163 31 325 49
429 78 539 150 89 58 193 168 228 241 83 172 59 365 -63 511 -22 27 -38 52
-35 57 9 15 178 51 235 51 69 0 120 -28 196 -104 83 -84 160 -183 255 -328
176 -269 282 -533 342 -854 21 -111 22 -144 21 -509 -2 -658 -36 -1717 -68
-2095 -17 -196 -38 -286 -92 -393 -192 -383 -633 -533 -1218 -416 -55 11 -180
43 -277 70 -210 59 -327 85 -463 104 -381 52 -682 10 -966 -136 -104 -53 -298
-186 -362 -247 -41 -39 -87 -121 -106 -187 -51 -182 -17 -534 56 -582 37 -24
53 -1 64 93 21 171 28 207 58 271 91 194 348 445 443 431 21 -3 23 -8 22 -58
-2 -89 -74 -382 -144 -582 -16 -49 -30 -96 -30 -106 0 -26 32 -52 64 -52 66 0
214 104 261 183 46 80 113 290 163 512 15 70 21 82 51 102 29 20 47 23 125 23
91 0 337 -35 451 -65 143 -37 265 -79 265 -91 0 -7 -65 -51 -143 -98 -104 -61
-158 -100 -195 -140 -92 -102 -149 -226 -177 -387 -23 -133 -40 -189 -97 -311
-59 -127 -61 -161 -10 -166 37 -4 138 48 198 101 73 63 149 200 213 381 44
123 73 175 133 234 64 64 142 113 223 141 64 21 338 57 355 46 16 -10 5 -21
-106 -96 -147 -100 -190 -157 -243 -318 -46 -141 -54 -220 -41 -405 13 -173 9
-345 -11 -488 -13 -88 -7 -123 21 -138 31 -17 73 12 126 85 103 145 139 285
155 605 6 118 15 232 20 253 14 55 69 109 173 174 50 31 116 75 146 98 78 60
110 74 208 91 66 11 116 29 207 73 119 57 296 162 386 227 84 61 80 41 -11
-68 -95 -113 -122 -171 -128 -276 -8 -144 33 -281 130 -429 88 -135 134 -268
144 -418 5 -68 2 -92 -20 -160 -61 -191 -63 -435 -5 -510 11 -14 26 -25 32
-25 27 0 56 68 76 176 12 61 39 156 62 215 97 247 117 343 99 484 -14 109 -40
187 -116 340 -113 229 -111 283 20 410 45 44 129 144 186 223 57 78 109 142
115 142 7 0 66 -69 133 -152 66 -84 145 -175 176 -201 31 -27 62 -60 70 -75
40 -78 24 -173 -53 -317 -100 -186 -140 -356 -121 -511 11 -85 30 -149 99
-324 24 -60 50 -153 62 -217 23 -123 45 -166 83 -161 77 11 89 307 20 522 -22
70 -25 92 -20 161 10 143 61 295 136 405 125 184 169 383 120 541 -14 48 -36
84 -85 144 -119 146 -123 159 -23 91 105 -72 245 -155 360 -213 81 -41 130
-59 205 -74 124 -25 144 -33 218 -89 33 -26 98 -71 145 -102 98 -63 145 -112
159 -165 5 -21 12 -112 16 -203 12 -301 39 -444 113 -585 43 -82 119 -165 150
-165 12 0 29 11 38 26 16 23 16 34 4 127 -14 106 -18 316 -10 592 4 144 3 169
-18 250 -29 109 -80 220 -120 258 -16 16 -76 61 -133 100 -56 40 -102 77 -101
82 3 13 86 9 227 -10 150 -21 234 -61 330 -159 74 -75 90 -104 151 -271 50
-137 117 -265 171 -325 49 -55 159 -126 211 -136 36 -7 62 8 62 36 0 9 -20 60
-44 111 -56 119 -82 199 -101 313 -20 118 -38 173 -88 269 -60 117 -116 172
-283 277 -80 51 -143 98 -141 104 5 15 228 82 372 110 268 53 428 60 482 20
24 -18 31 -36 50 -120 33 -146 88 -334 125 -421 25 -61 45 -91 92 -138 96 -95
209 -140 250 -99 22 21 20 37 -14 140 -73 212 -142 496 -144 584 -1 50 1 55
22 58 80 12 279 -172 387 -357 53 -91 74 -161 85 -290 10 -114 26 -161 54
-161 81 0 131 385 76 590 -17 66 -66 152 -108 193 -62 60 -258 193 -360 245
-195 100 -331 132 -587 139 -276 8 -440 -16 -795 -117 -327 -93 -481 -116
-720 -107 -191 7 -283 28 -435 102 -213 103 -356 278 -414 508 -30 114 -49
377 -76 1017 -42 1015 -50 1648 -22 1805 69 393 216 725 469 1058 80 106 185
210 236 236 46 23 104 27 184 10 61 -12 148 -39 148 -45 0 -2 -19 -28 -43 -57
-117 -144 -141 -346 -59 -505 83 -160 266 -296 460 -341 48 -11 152 -29 232
-41 80 -12 185 -30 235 -41 118 -25 115 -26 115 19 0 20 9 87 20 147 11 61 32
178 47 260 34 192 38 415 9 510 -43 143 -132 250 -253 308 -64 30 -74 32 -178
32 -90 -1 -120 -5 -166 -23 -47 -19 -139 -73 -195 -116 -8 -6 -26 2 -55 26
-24 20 -68 47 -96 62 -29 14 -53 31 -53 36 0 36 667 282 842 310 98 16 172 7
247 -31 65 -33 211 -161 211 -186 0 -9 -16 -33 -35 -54 -128 -142 -154 -419
-57 -617 32 -66 138 -182 231 -253 87 -65 256 -151 395 -201 142 -51 307 -98
318 -92 10 6 73 208 109 353 77 305 96 556 51 698 -41 132 -172 240 -338 279
-86 20 -248 15 -348 -11 l-70 -18 -35 44 c-19 24 -65 74 -103 110 -37 36 -68
69 -68 74 0 17 400 -18 625 -56 203 -34 460 -109 519 -152 17 -13 17 -16 1
-63 -23 -68 -30 -181 -16 -256 49 -251 271 -401 570 -385 127 6 219 31 446
122 189 75 241 93 296 101 42 7 58 25 42 47 -5 6 -25 55 -43 107 -169 484
-324 735 -510 830 -59 30 -75 34 -175 38 -233 9 -372 -68 -462 -258 -20 -41
-38 -77 -40 -79 -2 -3 -34 12 -71 32 -212 114 -486 180 -811 194 -83 3 -151 9
-151 12 0 3 39 46 86 94 l86 89 91 -46 c69 -34 111 -48 167 -55 152 -20 298
21 394 109 112 103 135 251 101 645 -8 94 -15 231 -15 307 l0 136 -62 -18
c-71 -21 -192 -36 -353 -45 -342 -19 -513 -71 -635 -194 -189 -189 -186 -441
6 -621 37 -34 77 -66 90 -72 13 -6 24 -18 24 -25 0 -39 -212 -211 -335 -271
-108 -54 -180 -74 -439 -128 -248 -51 -314 -68 -469 -126 -59 -22 -110 -38
-114 -35 -10 10 50 148 71 163 11 8 35 14 53 14 45 0 160 25 226 50 66 25 159
104 188 161 50 99 61 238 29 364 -33 131 -87 212 -281 426 -142 155 -163 183
-201 267 l-30 67 -22 -40 c-37 -68 -116 -143 -279 -267 -206 -156 -285 -236
-338 -342 -35 -71 -41 -92 -45 -171 -16 -259 98 -423 326 -466 36 -6 69 -15
74 -19 12 -12 -30 -152 -73 -240 -50 -105 -221 -283 -247 -257 -6 5 45 149 57
162 16 17 6 185 -12 185 -4 0 -64 -21 -132 -46 l-125 -45 -26 -85 c-41 -130
-163 -363 -289 -550 -62 -93 -147 -224 -187 -291 -69 -116 -90 -142 -90 -109
0 24 154 537 223 746 161 482 464 1279 577 1515 151 316 327 472 612 545 126
33 124 34 131 -60 12 -148 81 -302 167 -370 110 -87 265 -113 431 -71 160 40
254 97 444 265 175 156 241 196 378 226 31 7 57 16 57 20 0 4 -28 18 -62 30
-78 28 -140 86 -296 275 -299 361 -426 433 -677 380 -201 -43 -339 -178 -375
-370 -8 -44 -17 -66 -29 -69 -33 -10 -257 -56 -273 -56 -10 0 -18 3 -18 8 0
13 175 216 329 379 182 194 459 456 510 482 56 29 87 31 216 18 l120 -13 -3
-79 c-8 -177 40 -315 139 -410 93 -89 198 -125 365 -125 181 0 282 31 596 184
108 53 249 114 313 135 64 22 119 41 121 44 3 2 -19 14 -49 26 -88 36 -145
104 -297 356 -171 283 -286 421 -400 478 -119 59 -298 59 -418 1 -76 -37 -167
-132 -224 -235 -26 -46 -52 -90 -58 -96 -14 -17 -260 -18 -260 -2 0 6 11 41
24 78 20 56 34 113 61 247 4 20 13 21 122 27 137 7 221 26 310 68 127 61 220
193 244 348 21 138 -3 219 -116 391 -119 183 -169 300 -195 460 -6 41 -15 92
-18 112 l-7 37 -70 -47 c-38 -26 -140 -78 -225 -116 -526 -233 -655 -349 -685
-616 -16 -140 48 -311 155 -419 41 -41 88 -74 148 -104 l87 -44 -3 -84 c-5
-165 -71 -330 -196 -496 -82 -108 -201 -231 -213 -219 -4 4 -10 64 -14 134 -9
175 -43 302 -81 302 -17 0 -240 -49 -245 -53 -1 -1 11 -51 27 -112 51 -200 59
-357 24 -458 -7 -21 -51 -86 -97 -145 -46 -59 -176 -231 -289 -383 -113 -152
-211 -279 -216 -283 -17 -10 -20 3 -23 108 l-4 100 60 42 c245 171 303 364
185 607 -70 143 -154 218 -398 358 -113 65 -162 100 -214 153 -43 43 -69 63
-72 55 -3 -8 -12 -39 -22 -69 -20 -65 -71 -169 -164 -335 -139 -249 -185 -357
-199 -473 -31 -260 190 -479 462 -459 57 5 79 3 82 -6 2 -7 25 -68 50 -137 52
-139 52 -151 6 -240 -87 -166 -399 -985 -568 -1490 -83 -248 -96 -280 -108
-268 -3 3 -1 271 6 594 l11 589 41 79 c23 44 69 118 104 165 l63 85 -1 146
c-1 80 -4 179 -8 220 l-6 74 -130 -127 c-71 -70 -133 -127 -137 -127 -5 0 -8
260 -8 578 0 640 -1 623 66 752 50 95 211 306 322 422 93 97 230 210 271 223
15 4 37 -11 93 -68 117 -118 244 -164 428 -154 205 11 350 106 448 294 56 108
86 212 137 470 25 122 56 252 70 289 14 36 25 68 25 70 0 1 -51 3 -112 3 -82
0 -172 10 -328 36 -455 76 -604 54 -741 -108 -136 -162 -176 -333 -129 -556
11 -52 20 -95 20 -97 0 -1 -42 -25 -94 -52 -180 -95 -310 -211 -423 -379 -30
-46 -58 -83 -63 -83 -10 0 -22 382 -18 560 l3 135 97 6 c82 5 106 10 163 38
178 88 278 282 262 510 -8 111 -28 187 -76 286 -54 113 -106 176 -306 375
-179 177 -220 225 -248 293 -21 49 -43 47 -66 -5z m-445 -2319 c248 -262 267
-284 295 -344 17 -38 19 -75 19 -617 0 -318 -3 -578 -7 -578 -5 0 -66 57 -138
127 l-130 127 -6 -74 c-4 -41 -7 -140 -8 -220 l-1 -145 59 -78 c32 -43 79
-117 103 -165 l46 -87 11 -589 c7 -323 10 -591 6 -594 -11 -12 -25 17 -75 163
-125 364 -323 862 -520 1315 -109 248 -124 296 -118 367 3 39 38 214 54 271 3
11 20 12 77 7 225 -21 425 128 468 347 25 131 -29 283 -230 641 -114 204 -177
367 -143 367 5 0 112 -109 238 -241z"/>
</g>
</svg>
